<?xml version="1.0" encoding="iso-8859-1"?>
<!-- Generator: Adobe Illustrator 19.0.0, SVG Export Plug-In . SVG Version: 6.00 Build 0)  -->
<svg xmlns="http://www.w3.org/2000/svg" xmlns:xlink="http://www.w3.org/1999/xlink" version="1.1" id="Layer_1" x="0px" y="0px" viewBox="0 0 512 512" style="enable-background:new 0 0 512 512;" xml:space="preserve">
<circle style="fill:#3A4DE3;" cx="255.996" cy="255.996" r="255.996"/>
<path style="fill:#1C2EDE;" d="M512,255.999c0-5.921-0.218-11.79-0.614-17.611L406.609,133.611l-0.005,0.004  c-19.914-20.247-47.62-32.806-78.262-32.806c-20.77,0-40.192,5.771-56.754,15.792c-0.355-0.214-0.714-0.422-1.071-0.633  c-0.018-0.01-0.034-0.021-0.052-0.03c-2.3-1.355-4.653-2.629-7.057-3.817c-0.007-0.003-0.015-0.007-0.022-0.01  c-14.634-7.231-31.107-11.3-48.535-11.3c-60.594,0-109.715,49.121-109.715,109.715c0,3.877,0.204,7.705,0.597,11.478  c-33.148,14.637-56.285,47.792-56.285,86.355c0,25.672,10.257,48.944,26.889,65.956l-0.005,0.004l0.379,0.379  c0.263,0.266,0.528,0.531,0.794,0.793l132.5,132.38c14.922,2.707,30.292,4.128,45.996,4.128C397.385,512,512,397.385,512,255.999z"/>
<circle style="fill:#FF8900;" cx="328.344" cy="210.586" r="109.775"/>
<path style="fill:#FFFFFF;" d="M368.192,213.997h-43.688c0.036-1.154,0.061-2.311,0.061-3.473  c0-60.594-49.121-109.715-109.715-109.715S105.135,149.93,105.135,210.524c0,3.877,0.204,7.705,0.597,11.478  c-33.148,14.637-56.285,47.792-56.285,86.355c0,52.114,42.247,94.36,94.36,94.36h224.384c52.114,0,94.36-42.247,94.36-94.36  S420.306,213.997,368.192,213.997z"/>
<path style="fill:#E1E1E3;" d="M368.193,213.997h-43.688c0.036-1.154,0.061-2.311,0.061-3.473  c0-46.041-28.362-85.451-68.565-101.729v293.922h112.192c52.114,0,94.36-42.247,94.36-94.36S420.306,213.997,368.193,213.997z"/>
<g>
</g>
<g>
</g>
<g>
</g>
<g>
</g>
<g>
</g>
<g>
</g>
<g>
</g>
<g>
</g>
<g>
</g>
<g>
</g>
<g>
</g>
<g>
</g>
<g>
</g>
<g>
</g>
<g>
</g>
</svg>
